<?xml version="1.0" standalone="no"?>
<!DOCTYPE svg PUBLIC "-//W3C//DTD SVG 20010904//EN"
 "http://www.w3.org/TR/2001/REC-SVG-20010904/DTD/svg10.dtd">
<svg version="1.0" xmlns="http://www.w3.org/2000/svg"
 width="217.000000pt" height="232.000000pt" viewBox="0 0 217.000000 232.000000"
 preserveAspectRatio="xMidYMid meet">

<g transform="translate(0.000000,232.000000) scale(0.100000,-0.100000)"
fill="#000000" stroke="none">
<path d="M95 2306 c-45 -20 -83 -70 -90 -119 -3 -23 -5 -447 -3 -942 l3 -900
23 -36 c43 -71 25 -69 652 -69 l562 0 -6 22 c-4 13 -12 57 -18 98 -18 126 26
287 107 385 l34 42 -261 307 c-143 169 -267 310 -275 313 -8 3 -26 2 -39 -3
-13 -5 -157 -136 -318 -291 -162 -156 -297 -283 -300 -283 -3 0 -6 294 -6 654
0 539 2 656 14 665 10 8 248 10 882 9 l869 -3 3 -607 2 -608 53 -26 c28 -15
64 -35 79 -45 14 -11 29 -19 32 -19 4 0 5 308 4 684 -3 674 -3 685 -24 712
-11 15 -33 37 -48 48 -27 21 -35 21 -964 23 -764 2 -943 0 -967 -11z"/>
<path d="M1460 1964 c-80 -35 -130 -111 -130 -199 0 -230 314 -299 411 -90 48
104 -2 239 -105 286 -49 22 -128 24 -176 3z"/>
<path d="M1480 1290 c-11 -11 -20 -23 -20 -27 0 -5 -16 -102 -35 -218 -18
-115 -33 -211 -31 -212 2 -2 30 14 62 35 106 71 161 86 305 87 l127 0 -170
178 c-180 187 -197 198 -238 157z"/>
<path d="M1651 814 c-123 -33 -218 -113 -274 -232 -29 -61 -32 -75 -32 -167 0
-92 3 -106 32 -167 82 -173 259 -270 439 -240 175 29 304 151 340 323 63 299
-212 562 -505 483z m226 -150 c96 -46 154 -139 154 -248 0 -58 -24 -146 -40
-146 -8 0 -354 376 -359 389 -3 9 42 27 88 34 44 7 103 -4 157 -29z m-177
-296 c96 -104 176 -194 178 -199 2 -4 -22 -16 -54 -25 -100 -29 -203 4 -279
88 -54 60 -80 137 -72 209 6 52 31 119 44 118 4 0 87 -86 183 -191z"/>
</g>
</svg>
